HIERARCHY
ROOT Elbow
{
	OFFSET	0.00	0.00	0.00
	CHANNELS 6 Xposition Yposition Zposition Zrotation Xrotation Yrotation
	JOINT L_Wrist
	{
		OFFSET	 0.208349	 0.000000	 0.000000
		CHANNELS 3 Zrotation Xrotation Yrotation
		JOINT L_index_Proximal
		{
			OFFSET	 0.093499	 0.010637	-0.002083
			CHANNELS 3 Zrotation Xrotation Yrotation
			JOINT L_index_b
			{
				OFFSET	 0.033153	 0.000000	 0.000000
				CHANNELS 3 Zrotation Xrotation Yrotation
				JOINT L_index_c
				{
					OFFSET	 0.018651	 0.000000	 0.000000
					CHANNELS 3 Zrotation Xrotation Yrotation
					End Site
					{
						OFFSET	 0.018651	 0.000000	 0.000000
					}
				}
			}
		}
		JOINT L_middle_Proximal
		{
			OFFSET	 0.090632	-0.006115	-0.003750
			CHANNELS 3 Zrotation Xrotation Yrotation
			JOINT L_middle_b
			{
				OFFSET	 0.037194	 0.000000	 0.000000
				CHANNELS 3 Zrotation Xrotation Yrotation
				JOINT L_middle_c
				{
					OFFSET	 0.021943	 0.000000	 0.000000
					CHANNELS 3 Zrotation Xrotation Yrotation
					End Site
					{
						OFFSET	 0.021943	 0.000000	 0.000000
					}
				}
			}
		}
		JOINT L_pinky_Proximal
		{
			OFFSET	 0.074015	-0.035449	-0.000417
			CHANNELS 3 Zrotation Xrotation Yrotation
			JOINT L_pinky_b
			{
				OFFSET	 0.027285	 0.000000	 0.000000
				CHANNELS 3 Zrotation Xrotation Yrotation
				JOINT L_pinky_c
				{
					OFFSET	 0.015093	 0.000000	 0.000000
					CHANNELS 3 Zrotation Xrotation Yrotation
					End Site
					{
						OFFSET	 0.015093	 0.000000	 0.000000
					}
				}
			}
		}
		JOINT L_ring_Proximal
		{
			OFFSET	 0.082801	-0.021859	-0.003750
			CHANNELS 3 Zrotation Xrotation Yrotation
			JOINT L_ring_b
			{
				OFFSET	 0.034478	 0.000000	 0.000000
				CHANNELS 3 Zrotation Xrotation Yrotation
				JOINT L_ring_c
				{
					OFFSET	 0.021377	 0.000000	 0.000000
					CHANNELS 3 Zrotation Xrotation Yrotation
					End Site
					{
						OFFSET	 0.021377	 0.000000	 0.000000
					}
				}
			}
		}
		JOINT L_thumb_Proximal
		{
			OFFSET	 0.030306	 0.018528	 0.004584
			CHANNELS 3 Zrotation Xrotation Yrotation
			JOINT L_thumb_a
			{
				OFFSET	 0.038520	 0.000000	 0.000000
				CHANNELS 3 Zrotation Xrotation Yrotation
				JOINT L_thumb_b
				{
					OFFSET	 0.026310	 0.000000	 0.000000
					CHANNELS 3 Zrotation Xrotation Yrotation
					End Site
					{
						OFFSET	 0.026310	 0.000000	 0.000000
					}
				}
			}
		}
	}
}
MOTION
Frames:    12
Frame Time: 0.01666667
 0.206100	-0.147369	-0.316762	-69.890210	 32.269660	-60.209360	-3.894678	-2.408047	-13.797740	-7.934854	 0.892919	-4.849270	-0.964243	 0.128297	-15.156710	-1.419850	 0.110163	-8.872975	-20.575070	-7.231586	-5.060346	 0.698491	-0.082197	-13.422800	-1.173343	 0.080361	-7.835691	-38.653930	-18.444400	-6.924044	-1.687861	 0.232682	-15.697540	 1.866953	-0.155377	-9.514319	-30.360820	-9.190532	-13.587820	 0.648358	-0.110186	-19.289260	-0.574324	 0.053289	-10.601250	 59.258930	 61.998430	-7.864710	 0.385335	 0.034110	 10.115100	 0.012192	 0.000020	 0.160333
 0.206094	-0.147324	-0.316661	-69.904910	 32.262550	-60.201520	-3.891163	-2.408043	-13.797730	-7.940551	 0.894056	-4.853622	-0.965099	 0.128396	-15.155420	-1.424352	 0.110637	-8.882491	-20.580980	-7.232682	-5.040651	 0.696636	-0.081945	-13.418250	-1.177548	 0.080586	-7.829317	-38.618270	-18.449860	-6.908749	-1.676951	 0.231038	-15.687520	 1.869264	-0.155312	-9.498221	-30.362990	-9.195774	-13.532870	 0.649842	-0.110255	-19.259010	-0.576551	 0.053370	-10.579330	 59.225890	 62.009380	-7.814998	 0.395659	 0.035146	 10.148490	 0.028254	 0.000035	 0.197795
 0.206127	-0.147303	-0.316584	-69.938250	 32.246400	-60.183720	-3.897563	-2.410284	-13.810840	-7.982829	 0.890603	-4.728785	-0.997508	 0.131743	-15.047820	-1.424375	 0.110376	-8.861092	-20.580150	-7.236756	-4.999163	 0.698739	-0.082107	-13.404620	-1.178163	 0.080602	-7.827666	-38.586810	-18.459910	-6.839347	-1.679960	 0.230993	-15.656950	 1.862035	-0.153854	-9.445404	-30.342030	-9.206776	-13.465720	 0.661733	-0.111953	-19.205220	-0.574818	 0.053048	-10.546370	 59.211700	 62.018540	-7.768300	 0.404464	 0.035728	 10.096970	 0.046622	 0.000078	 0.149785
 0.206159	-0.147290	-0.316535	-69.973300	 32.229390	-60.165030	-3.906919	-2.413391	-13.829010	-8.023786	 0.891374	-4.660942	-0.996461	 0.131239	-15.004980	-1.428720	 0.110605	-8.853419	-20.575140	-7.240895	-4.957126	 0.698062	-0.081968	-13.393200	-1.184178	 0.081007	-7.825375	-38.549980	-18.470240	-6.769891	-1.673193	 0.229512	-15.619710	 1.853648	-0.152696	-9.417234	-30.324420	-9.217160	-13.394440	 0.657052	-0.110841	-19.151110	-0.586937	 0.054004	-10.513130	 59.199800	 62.025640	-7.737442	 0.408938	 0.035994	 10.064990	 0.058019	 0.000110	 0.128241
 0.206185	-0.147339	-0.316577	-69.989670	 32.221470	-60.156310	-3.913625	-2.414387	-13.834810	-8.038236	 0.894364	-4.691962	-0.983251	 0.129801	-15.040370	-1.432297	 0.111072	-8.868353	-20.575460	-7.246298	-4.908216	 0.703439	-0.082505	-13.378580	-1.190309	 0.081420	-7.825391	-38.516990	-18.475600	-6.757055	-1.674157	 0.229413	-15.604100	 1.836223	-0.151297	-9.419798	-30.295080	-9.229018	-13.340670	 0.653402	-0.110230	-19.151470	-0.602764	 0.055495	-10.521140	 59.190650	 62.027680	-7.722535	 0.418110	 0.036995	 10.110930	 0.047343	 0.000062	 0.170828
 0.206202	-0.147373	-0.316643	-69.997170	 32.217810	-60.152310	-3.928698	-2.414192	-13.833670	-8.025952	 0.893938	-4.703438	-0.982206	 0.129709	-15.045240	-1.434919	 0.111161	-8.859007	-20.572410	-7.249754	-4.873750	 0.711348	-0.083388	-13.372820	-1.191005	 0.081503	-7.829575	-38.493430	-18.477310	-6.763989	-1.681731	 0.230475	-15.605930	 1.820575	-0.150147	-9.428136	-30.264070	-9.232954	-13.358280	 0.644652	-0.109132	-19.215990	-0.610286	 0.056462	-10.571230	 59.210440	 62.028340	-7.715697	 0.417559	 0.036978	 10.120620	 0.038628	 0.000046	 0.177176
 0.206181	-0.147362	-0.316719	-70.001860	 32.215540	-60.149800	-3.942529	-2.411576	-13.818390	-8.016513	 0.895059	-4.740210	-0.991821	 0.131032	-15.051280	-1.433391	 0.111025	-8.857717	-20.567060	-7.250940	-4.870872	 0.725486	-0.085081	-13.378140	-1.192485	 0.081610	-7.830112	-38.480900	-18.479000	-6.763358	-1.680617	 0.230048	-15.587710	 1.812523	-0.149557	-9.433510	-30.251530	-9.227251	-13.440150	 0.643850	-0.109759	-19.347470	-0.623633	 0.058056	-10.636400	 59.188730	 62.038160	-7.666195	 0.398174	 0.035442	 10.173030	 0.023445	 0.000037	 0.212110
 0.206154	-0.147347	-0.316803	-70.039840	 32.197090	-60.129560	-3.967974	-2.408803	-13.802100	-8.002651	 0.896176	-4.779857	-0.997350	 0.132082	-15.087440	-1.435611	 0.111416	-8.874759	-20.549690	-7.255243	-4.847340	 0.736286	-0.086450	-13.393980	-1.192003	 0.081657	-7.838003	-38.470600	-18.480290	-6.761789	-1.673637	 0.228806	-15.568190	 1.814573	-0.149657	-9.428285	-30.238120	-9.228160	-13.456680	 0.634932	-0.108323	-19.362480	-0.631044	 0.058664	-10.621470	 59.125780	 62.055770	-7.584756	 0.356989	 0.031820	 10.191340	 0.023084	 0.000067	 0.219630
 0.206153	-0.147362	-0.316890	-70.071110	 32.181890	-60.112900	-3.982920	-2.407678	-13.795560	-7.985758	 0.895765	-4.802780	-0.984371	 0.130811	-15.138750	-1.428811	 0.111115	-8.893148	-20.539910	-7.256343	-4.847823	 0.741973	-0.087257	-13.412760	-1.185581	 0.081294	-7.844583	-38.453040	-18.482300	-6.761040	-1.668751	 0.228288	-15.578560	 1.820184	-0.149992	-9.421041	-30.241350	-9.231497	-13.418100	 0.625020	-0.106319	-19.309560	-0.631963	 0.058447	-10.568940	 59.122040	 62.058290	-7.572089	 0.357829	 0.031862	 10.177670	 0.037528	 0.000080	 0.211268
 0.206164	-0.147371	-0.316986	-70.112600	 32.161690	-60.090820	-3.998675	-2.407060	-13.791950	-7.989743	 0.894473	-4.758649	-0.987126	 0.131143	-15.134060	-1.434523	 0.111370	-8.878314	-20.529430	-7.257319	-4.837892	 0.743169	-0.087471	-13.426350	-1.183767	 0.081211	-7.850021	-38.434590	-18.484270	-6.750016	-1.666899	 0.227917	-15.570480	 1.821635	-0.150008	-9.414475	-30.238670	-9.239173	-13.336860	 0.611413	-0.103347	-19.187500	-0.625276	 0.057535	-10.514060	 59.158530	 62.050980	-7.610059	 0.383831	 0.034143	 10.170550	 0.045304	 0.000091	 0.208488
 0.206199	-0.147370	-0.317065	-70.154870	 32.141090	-60.068320	-4.014616	-2.406297	-13.787480	-7.998800	 0.889707	-4.688974	-0.978840	 0.130089	-15.139870	-1.425202	 0.110587	-8.873563	-20.522800	-7.259668	-4.832854	 0.727787	-0.085679	-13.428810	-1.191808	 0.081750	-7.847828	-38.438630	-18.485000	-6.747847	-1.663160	 0.226894	-15.535780	 1.820338	-0.149646	-9.398590	-30.237160	-9.246607	-13.277570	 0.592803	-0.099809	-19.113410	-0.637916	 0.058517	-10.482230	 59.145100	 62.055670	-7.582146	 0.389737	 0.034506	 10.119190	 0.068201	 0.000131	 0.186155
 0.206225	-0.147353	-0.317101	-70.168460	 32.134470	-60.061080	-4.024710	-2.405917	-13.785290	-8.009962	 0.886973	-4.629676	-0.975641	 0.129439	-15.114350	-1.426048	 0.110612	-8.870280	-20.522750	-7.260768	-4.821561	 0.718038	-0.084468	-13.417820	-1.193447	 0.081813	-7.842484	-38.434040	-18.487690	-6.724741	-1.656837	 0.225640	-15.508470	 1.820575	-0.149354	-9.378512	-30.228570	-9.252157	-13.239730	 0.588367	-0.098924	-19.087960	-0.642909	 0.059007	-10.487880	 59.185500	 62.048320	-7.613800	 0.403630	 0.035661	 10.099930	 0.079426	 0.000116	 0.175498
